<svg width="1024" height="1024" version="1.1" xmlns="http://www.w3.org/2000/svg" desc="Created with imagetracer.js version 1.2.6" ><path fill="rgb(0,0,0)" stroke="rgb(0,0,0)" stroke-width="1" opacity="0" d="M 0 0 L 1024 0 L 1024 1024 L 0 1024 L 0 0 Z M 472 167 L 471 168 L 445 168 L 431 175 L 422 185 L 418 194 Q 419 198 417 200 L 417 210 L 419 218 L 425 228 Q 431 235 441 239 L 452 240 L 453 241 L 471 241 L 472 240 L 475 242 L 475 250 L 474 251 L 475 253 L 474 268 L 464 269 L 458 271 L 452 271 L 435 276 L 431 276 Q 405 283 384 294 Q 342 315 311 346 Q 289 367 272 393 L 251 431 L 243 450 L 232 486 L 228 506 L 226 529 L 225 530 L 225 577 L 226 578 L 226 587 L 233 626 L 240 649 Q 263 710 305 753 Q 339 788 385 811 L 410 822 L 438 831 L 472 838 L 492 839 L 493 840 L 504 840 L 505 839 L 525 839 L 526 840 L 548 839 L 549 838 L 573 835 L 616 822 L 655 803 Q 680 788 702 769 Q 745 731 772 678 L 783 652 L 792 623 L 798 590 L 799 571 L 800 570 L 800 536 L 799 535 L 799 523 L 797 515 L 797 509 L 792 484 L 783 454 L 771 426 L 762 409 Q 746 383 727 361 Q 693 323 648 298 L 607 280 L 582 273 L 572 272 L 555 268 Q 549 269 549 268 L 549 242 Q 550 239 552 241 L 574 241 Q 575 238 582 240 L 596 232 Q 605 224 608 210 L 607 194 L 601 182 Q 594 171 580 168 L 473 168 L 472 167 Z " /><path fill="rgb(0,0,0)" stroke="rgb(0,0,0)" stroke-width="1" opacity="0" d="M 502.5 328 L 521.5 328 L 522.5 329 L 530.5 329 L 531.5 330 L 552.5 332 L 576.5 338 L 598.5 346 Q 625.4 357.6 647.5 374 L 674 398.5 Q 690.9 416.1 704 437.5 Q 715.8 457.7 724 481.5 L 733 517.5 L 734 535.5 L 735 536.5 L 735 569.5 L 734 570.5 L 734 581.5 L 730 604.5 L 724 625.5 L 716 645.5 Q 695.5 690 660.5 720 L 644.5 733 L 619.5 749 L 586.5 764 L 559.5 772 L 547.5 773 L 540.5 775 L 532.5 775 L 531.5 776 L 494.5 776 L 493.5 775 L 484.5 775 L 478.5 773 L 473.5 773 L 448.5 767 L 426.5 759 L 403.5 748 Q 368.4 728.1 343 698.5 Q 315.4 667.6 300 624.5 L 292 595.5 L 290 574.5 L 289 573.5 L 288 551.5 Q 290.5 550 289 544.5 Q 286.7 543.3 288 538.5 L 289 537.5 L 289 529.5 L 291 520.5 L 291 518.5 L 292 508.5 Q 295.5 501.5 296 491.5 L 308 458.5 L 328 424.5 L 351 396 L 382.5 370 L 399.5 359 L 420.5 348 L 453.5 336 Q 463.1 335.6 469.5 332 L 483.5 331 L 490.5 329 L 501.5 329 L 502.5 328 Z M 607 426 L 596 429 L 589 433 L 529 494 Q 526 493 527 496 L 524 498 L 506 498 L 493 501 Q 481 505 474 513 Q 461 525 457 545 L 457 562 L 459 571 L 468 588 Q 476 598 489 604 L 497 607 L 514 608 L 515 609 L 533 606 L 547 598 Q 556 590 563 579 L 569 561 Q 571 555 568 554 L 568 549 L 571 545 L 586 531 L 591 525 L 598 519 L 636 480 L 640 473 L 642 464 Q 643 448 636 440 Q 631 432 622 428 L 615 426 L 607 426 Z " /><path fill="rgb(3,3,4)" stroke="rgb(3,3,4)" stroke-width="1" opacity="0.9568627450980393" d="M 453.5 168 L 461.5 169 L 464.5 168 L 468.5 168 L 470.5 169 L 471.5 168 L 512.5 168 L 515.5 169 L 519.5 168 L 523.5 169 L 528.5 168 L 530.5 168 L 543.5 169 L 545.5 168 L 547.5 168 L 552.5 169 L 579.5 169 L 590.5 173 L 600 180.5 L 599 181.5 L 602 184.5 L 606 192.5 L 607 209.5 L 606 213.5 L 606.5 215 L 605 214.5 Q 603.1 225.6 595.5 231 Q 588.5 237.5 577.5 240 L 548 240 L 547.5 268 L 547 240.5 L 548.5 239 L 576.5 239 L 580.5 238 Q 591.6 234.6 598 226.5 Q 607.2 217.2 606 197.5 Q 603.1 183.9 593.5 177 L 585.5 172 L 578.5 170 L 445.5 170 Q 432.8 173.3 426 182.5 Q 418.1 191.1 419 208.5 Q 422.1 224.9 433.5 233 Q 439.5 237.5 448.5 239 L 476 239 Q 478.1 242.3 477 250.5 L 476 255.5 L 477 257.5 L 476 258.5 L 476 268.5 L 474.5 270 L 456.5 272 L 430.5 278 L 399.5 289 L 371.5 303 L 372.5 301 L 391.5 291 L 423.5 279 L 455.5 271 L 475 269 L 475 240 L 446.5 240 Q 432.9 237.1 426 227.5 Q 416.6 218.4 418 198.5 Q 420.7 183.7 430.5 176 L 441.5 170 L 452.5 169 L 453.5 168 Z " /><path fill="rgb(3,3,4)" stroke="rgb(3,3,4)" stroke-width="1" opacity="0.9568627450980393" d="M 547.5 269 L 562.5 270 L 597.5 278 Q 624.6 286.4 647.5 299 Q 691.5 323 724 358.5 Q 760.9 398.1 782 453.5 L 792 487.5 L 797 514.5 L 798 532.5 L 799 533.5 L 799 569.5 L 798 570.5 L 797 591.5 L 792 618.5 L 783 649.5 L 774 671.5 Q 751.1 720.6 714.5 756 L 712 757.5 Q 712.8 759.8 710.5 759 Q 669.6 800.1 610.5 823 L 581.5 832 L 556.5 837 L 549.5 837 L 540.5 839 L 487.5 839 L 486.5 838 L 477.5 838 L 476.5 837 L 458.5 835 L 436.5 830 L 392.5 814 L 353.5 792 Q 326.6 774.4 305 751.5 Q 268.2 713.8 246 661.5 L 237 636.5 L 231 612.5 L 228 589.5 L 227 588.5 L 226 560.5 L 225 558.5 Q 227.3 557.3 226 552.5 Q 223.8 551.3 225 546.5 L 226 545.5 L 227 518.5 L 228 517.5 L 230 499.5 L 235 477.5 L 244 449.5 L 262 410.5 L 273 392.5 L 295 363 Q 297.7 364.1 297 361.5 Q 327.4 326.4 369.5 303 L 367.5 306 Q 338.5 321.5 316 343.5 Q 316.8 345.8 314.5 345 L 306 353.5 L 306 355 L 304 355 L 304 357 Q 301.3 355.9 302 358.5 Q 284.5 376 271 397.5 L 254 428.5 L 243 455.5 L 236 478.5 L 230 506.5 L 230 513.5 L 228 521.5 L 228 531.5 L 227 532.5 L 227 573.5 L 228 574.5 L 229 593.5 L 231 599.5 L 231 601.5 L 233 615.5 L 239 638.5 L 257 682.5 Q 281.6 729.9 319.5 764 Q 360.4 802.1 418.5 823 L 445.5 831 L 450.5 831 L 455.5 833 L 465.5 835 L 472.5 835 L 478.5 837 L 490.5 837 L 491.5 838 L 535.5 838 L 536.5 837 L 554.5 836 L 580.5 831 L 612.5 821 L 633.5 812 Q 683 787.5 719 749.5 Q 718.3 747.3 720.5 748 Q 757.8 710.3 779 656.5 L 788 629.5 L 792 612.5 L 792 607.5 L 794 602.5 Q 793.1 594.1 796 589.5 L 797 568.5 L 798 567.5 L 798 541.5 L 797 538.5 L 796 515.5 L 791 488.5 L 781 454.5 L 770 428.5 Q 745.1 376.9 704.5 341 Q 672.8 311.2 630.5 292 L 597.5 279 L 572.5 273 L 566.5 273 L 562.5 271 L 560.5 272 L 559.5 271 L 547.5 270 L 547.5 269 Z " /><path fill="rgb(3,3,4)" stroke="rgb(3,3,4)" stroke-width="1" opacity="0.9568627450980393" d="M 497.5 327 L 525.5 327 L 526.5 328 L 550.5 330 L 572.5 335 L 600.5 345 Q 648.5 366.5 681 403.5 Q 709.8 435.7 726 480.5 L 733 506.5 L 736 523.5 L 736 534.5 L 737 535.5 L 737 571.5 L 736 572.5 L 736 581.5 L 735 582.5 L 734 593.5 L 732 599.5 L 732 601.5 L 725 628.5 L 710 661.5 Q 692.4 693.4 666.5 717 L 664 718.5 Q 664.8 720.8 662.5 720 Q 631.1 749.6 586.5 766 L 562.5 773 L 540.5 777 L 499.5 778 L 498.5 777 L 484.5 777 L 458.5 772 L 438.5 766 L 412.5 755 Q 372.4 734.6 344 702.5 Q 316.9 673.1 301 632.5 L 294 610.5 L 289 586.5 L 288 570.5 L 287 569.5 L 287 532.5 L 288 531.5 L 290 510.5 L 295 492.5 L 295 488.5 L 305 461.5 L 320 433.5 L 346 399 L 354 392.5 L 355.5 390 Q 372.5 374 392.5 361 L 418.5 347 L 447.5 336 L 473.5 330 L 496.5 328 L 497.5 327 Z M 503 328 L 502 329 L 491 329 L 490 330 L 482 330 L 465 333 L 429 344 Q 389 361 360 388 Q 325 419 305 465 L 300 478 L 292 507 L 291 519 L 289 525 L 289 538 L 288 539 L 288 563 L 288 565 L 289 566 L 289 578 L 290 579 L 292 598 Q 297 621 306 642 Q 323 681 352 709 Q 351 711 354 710 L 355 713 L 382 735 L 418 756 L 443 766 L 465 772 L 481 775 L 502 776 L 503 777 L 526 777 L 527 776 L 537 776 L 538 775 L 552 774 L 592 763 Q 632 747 662 720 Q 694 691 715 650 L 723 631 L 729 612 L 734 587 L 735 569 L 736 568 L 736 542 L 735 541 L 735 527 L 733 520 L 733 514 L 728 492 L 721 471 L 704 437 L 691 418 L 670 395 L 670 393 L 669 393 L 647 373 L 626 359 L 605 348 L 590 342 L 572 336 L 543 330 L 523 329 L 522 328 L 503 328 Z " /><path fill="rgb(3,3,4)" stroke="rgb(3,3,4)" stroke-width="1" opacity="0.9568627450980393" d="M 604.5 427 L 614.5 427 L 621.5 429 Q 630.3 433.3 636 440.5 L 641 452.5 Q 639.3 458.8 642 460.5 L 640 470.5 L 637 477.5 L 627.5 488 Q 625.3 487.3 626 489.5 L 617 497.5 L 607.5 508 L 604 510.5 L 595.5 520 Q 593.3 519.3 594 521.5 L 586 528.5 L 584 531.5 L 580 534 L 580 536 Q 577.3 534.9 578 537.5 L 574 540 L 570.5 545 Q 568.3 544.3 569 546.5 L 568 546.5 L 634 479.5 L 639 470.5 L 640 453.5 Q 637.1 439.4 626.5 433 L 617.5 429 L 608.5 428 L 606.5 428 L 597.5 430 L 590.5 434 L 528 496.5 L 526.5 499 Q 524.8 501.8 519.5 501 L 518.5 500 L 505.5 500 Q 482.7 503.7 471 518.5 Q 463.6 527.1 460 539.5 L 459 543.5 L 459 562.5 Q 463.6 584.4 478.5 596 L 498.5 606 L 503.5 607 L 521.5 607 Q 542.6 602.6 554 588.5 L 563 574.5 L 567 560.5 L 567.5 548 L 568 562.5 Q 562.5 586 545.5 598 Q 534.1 607.6 514.5 609 L 513.5 608 L 502.5 608 L 494.5 606 L 480.5 599 L 473 593 L 464 580.5 L 459 568.5 L 458 564.5 L 458 542.5 Q 462.5 524 474.5 513 Q 483.8 503.8 498.5 500 L 503.5 499 L 524.5 499 L 551 472.5 Q 550.3 470.3 552.5 471 L 560.5 462 Q 562.8 462.8 562 460.5 L 569 455 L 569 453 Q 571.7 454.1 571 451.5 L 578 446 L 578 444.5 L 588.5 434 L 592.5 431 L 604.5 427 Z " /><path fill="rgb(20,21,24)" stroke="rgb(20,21,24)" stroke-width="1" opacity="0.9882352941176471" d="M 471.5 167 L 470.5 169 L 471.5 167 Z " /><path fill="rgb(20,21,24)" stroke="rgb(20,21,24)" stroke-width="1" opacity="0.9882352941176471" d="M 444.5 168 L 453 168.5 Q 443.8 167.8 439 171.5 L 441.5 172 L 445.5 170 L 578.5 170 L 585.5 172 L 585.5 171 L 579.5 169 L 552 168.5 L 579.5 168 L 590 172.5 L 588.5 172 L 586 172.5 L 598.5 182 L 601 181 L 602 183.5 L 600 183.5 L 602.5 188 L 603 186.5 L 602.5 185 L 606 191.5 L 605 191.5 L 603.5 188 L 603 190.5 L 605.5 197 L 606.5 193 Q 609.5 199 608 209.5 L 604.5 219 L 603.5 217 L 601 222.5 L 603 222.5 L 598.5 228 L 597.5 227 L 594 230.5 L 595.5 231 L 598 229.5 L 585.5 238 L 585.5 237 L 590 234.5 L 588.5 234 L 576.5 239 L 548 239.5 L 550 240.5 L 549 241.5 L 549 268 L 562 269.5 L 555.5 270 Q 553.8 267.3 547.5 269 L 547.5 270 L 561.5 272 L 565.5 270 L 565.5 271 L 563 271.5 Q 566.1 273.9 572.5 273 L 576.5 272 L 576.5 273 L 573 273.5 L 593.5 278 L 596.5 277 L 596.5 278 L 594 278.5 L 597.5 279 L 599.5 278 L 599.5 279 L 598 279.5 L 600.5 280 L 602.5 279 L 602.5 280 L 601 280.5 L 603.5 281 L 606.5 280 L 609 281.5 L 607.5 282 L 604.5 281 L 604.5 282 L 614.5 285 L 614.5 284 L 613 283.5 L 614.5 283 L 617 284.5 L 615 285.5 L 648.5 301 L 647.5 299 L 618 285.5 L 619.5 285 L 647.5 298 L 656 303.5 L 654.5 303 L 653 303.5 L 657.5 306 L 657.5 304 L 661 306.5 L 659.5 306 L 658 306.5 L 662.5 309 L 662.5 307 Q 686.8 321.2 706 340.5 L 705 341.5 L 723.5 360 L 724 358.5 L 707.5 341 L 732 366.5 L 724 360.5 L 735.5 374 L 736 372.5 L 733.5 369 L 746 384.5 L 743 383.5 L 745.5 387 Q 747.3 384.2 749 388.5 Q 761.8 405.7 771 426.5 L 770 426.5 L 765.5 418 L 765 419.5 Q 778.8 443.7 787 473.5 L 794 503.5 L 794 508.5 L 796 515.5 L 796 524.5 L 797 525.5 L 797 538.5 L 798 539.5 L 798 541.5 L 798 567.5 L 797 568.5 L 796 589.5 Q 793.1 594.1 794 602.5 L 792 607.5 L 792 612.5 L 788 629.5 L 779 656.5 L 780 656.5 L 780.5 655 L 781 656.5 L 779.5 659 L 778.5 657 L 767 683.5 L 768 683.5 L 771.5 676 L 772 677.5 L 764.5 691 L 765 689.5 L 766 686.5 L 764 687.5 L 759 697.5 L 761 697.5 L 746.5 719 Q 744.8 716.3 743 720.5 L 743.5 722 L 746 720.5 L 740 724.5 L 740.5 726 L 743 724.5 L 736 729.5 L 736.5 731 L 739 729.5 Q 737.3 733.8 735.5 731 L 731 735.5 L 731.5 737 L 736 733.5 L 731.5 738 L 730.5 737 L 722 745.5 L 722.5 747 L 731 739.5 L 718.5 752 L 717.5 751 L 713 755.5 Q 715.2 756.7 712.5 758 Q 711.3 755.8 710 758.5 L 711 759.5 L 701.5 769 L 707.5 761 L 698 769.5 Q 700.8 771.3 696.5 773 L 697.5 770 L 693 773.5 Q 695.8 775.2 691.5 777 L 691.5 775 L 688 777.5 L 689 778.5 L 685.5 782 L 687.5 778 L 683 781.5 Q 685.2 782.8 682.5 784 L 682.5 782 L 680 783.5 Q 682.7 785.3 678.5 787 L 679.5 784 L 676 786.5 Q 678.8 788.3 674.5 790 L 671.5 792 L 672.5 789 L 667 792.5 L 668.5 793 L 670 792.5 L 660.5 799 L 660.5 797 L 656 799.5 L 657.5 800 L 659 799.5 Q 642.8 811.8 621.5 819 L 621.5 818 L 625 816.5 L 622.5 816 L 613 820.5 L 615.5 821 L 619.5 819 L 619.5 820 L 611.5 823 L 611.5 822 L 613 821.5 L 610.5 821 L 580.5 831 L 554.5 836 L 536.5 837 L 535.5 838 L 491.5 838 L 490.5 837 L 478.5 837 L 472.5 835 L 465.5 835 L 450.5 831 L 445.5 831 L 441.5 832 L 441.5 831 L 445 830.5 L 433.5 828 L 430.5 829 L 424 826.5 L 427 825.5 L 418.5 823 L 418.5 824 L 420 824.5 L 418.5 825 L 405 819.5 L 407 818.5 L 402.5 817 L 402.5 818 L 404 818.5 L 402.5 819 L 393 814.5 L 394.5 814 L 399.5 816 L 399.5 815 L 389.5 811 L 389.5 812 L 392 813.5 L 390.5 813 L 387 811.5 L 389 810.5 L 377.5 805 L 377.5 807 L 360 796.5 L 361.5 797 L 363 796.5 L 358.5 794 L 358.5 796 L 340 782.5 Q 342.8 780.8 338.5 779 L 337 779.5 L 338.5 782 Q 320.1 768.9 305 752.5 L 313.5 760 L 315 759.5 L 294 740.5 L 289 734.5 L 293 736.5 L 289.5 732 Q 287.7 734.8 286 730.5 L 288 730.5 L 286.5 728 L 285.5 729 L 281 724.5 L 267 703.5 L 269 704.5 L 270.5 707 L 271 705.5 L 266.5 699 L 266 700.5 L 266.5 702 L 264 698.5 L 266 698.5 L 263.5 694 L 263 695.5 L 263.5 697 L 249 669.5 L 250 669.5 L 254.5 679 L 255 676.5 L 250 667.5 L 239 638.5 L 230 600.5 L 230 598.5 L 229 585.5 L 228 584.5 L 228 574.5 L 227 573.5 L 227 532.5 L 228 531.5 L 228 521.5 L 230 513.5 L 230 506.5 L 234 486.5 L 243 455.5 L 242 455.5 L 241.5 457 L 241 455.5 L 250.5 433 L 251.5 435 L 254 428.5 L 253 428.5 L 251.5 432 L 251 430.5 L 254.5 424 L 255.5 426 L 257 422.5 L 255 422.5 L 261.5 411 L 261 412.5 L 258 419.5 L 260 418.5 L 264 409.5 L 262 409.5 L 264.5 406 Q 265.8 408.3 267 405.5 L 266.5 404 L 265 404.5 L 267.5 401 Q 268.8 403.3 270 400.5 L 269.5 399 L 268 399.5 L 270.5 396 Q 272.3 398.8 274 394.5 L 275 391.5 L 273 392.5 L 271.5 395 L 272 393.5 L 285.5 375 L 284 377.5 L 284.5 379 L 290 371.5 L 286 373.5 L 294.5 364 Q 295.7 366.3 297 363.5 L 296.5 362 L 297.5 363 L 302 358.5 L 301.5 357 L 297 360.5 L 310.5 346 L 321.5 336 L 317.5 342 L 324 336.5 L 323 335.5 L 328.5 330 L 333.5 326 L 332.5 329 L 336 326.5 L 335 325.5 L 338.5 322 L 357.5 309 L 356.5 312 L 369 304.5 L 367.5 304 L 359.5 309 L 361.5 306 L 384.5 294 L 384.5 296 L 399 289.5 L 396.5 289 L 392.5 291 L 392.5 290 L 402.5 286 L 402.5 287 L 399 288.5 L 401.5 289 L 409.5 285 L 427 279.5 L 424 278.5 L 432.5 276 L 432.5 277 L 430 277.5 L 433.5 278 L 451.5 273 L 475 269.5 L 469 268.5 L 474 268 L 474.5 256 L 475.5 269 L 477 256.5 L 476 251.5 L 477 250.5 L 477 241.5 L 476 239 L 448.5 239 L 436.5 235 L 436.5 237 Q 429 234 425 227.5 L 423 224.5 L 426 225.5 Q 418.3 216.7 419 199.5 L 422 188.5 L 421 188.5 L 418.5 198 L 418 193.5 Q 421.7 181.7 430.5 175 L 444.5 168 Z M 434 174 L 426 181 L 427 182 L 435 175 L 434 174 Z M 426 182 L 422 187 L 423 188 L 426 184 L 426 182 Z M 607 197 L 606 209 L 604 214 L 605 217 L 607 210 L 607 197 Z M 601 223 L 598 227 L 601 225 L 601 223 Z M 427 226 L 426 228 L 433 233 L 427 226 Z M 592 232 L 591 234 L 593 233 L 592 232 Z M 434 233 L 435 235 L 436 235 L 434 233 Z M 548 240 L 547 268 L 548 268 L 548 240 Z M 428 278 L 428 279 L 430 279 L 428 278 Z M 382 296 L 378 298 L 377 300 L 384 297 L 382 296 Z M 373 301 L 372 303 L 374 302 L 373 301 Z M 664 309 L 665 311 L 666 311 L 664 309 Z M 667 311 L 668 313 L 669 313 L 667 311 Z M 353 313 L 351 316 L 354 314 L 353 313 Z M 670 313 L 671 315 L 672 315 L 670 313 Z M 673 315 L 674 317 L 675 317 L 673 315 Z M 349 316 L 348 318 L 350 317 L 349 316 Z M 676 317 L 677 319 L 678 319 L 676 317 Z M 346 318 L 345 320 L 347 319 L 346 318 Z M 679 319 L 681 322 L 682 322 L 679 319 Z M 343 320 L 341 323 L 344 321 L 343 320 Z M 683 322 L 685 325 L 686 325 L 683 322 Z M 339 323 L 337 326 L 340 324 L 339 323 Z M 687 325 L 691 330 L 692 330 L 687 325 Z M 498 327 L 497 328 L 474 330 L 457 334 L 457 336 L 456 335 L 448 336 L 436 341 L 438 341 L 438 342 L 436 341 L 432 342 L 432 344 L 431 343 L 428 344 L 430 344 L 430 345 L 428 344 L 421 347 L 423 347 L 423 348 L 421 347 L 417 349 L 419 349 L 420 349 L 417 351 L 414 350 L 414 352 L 412 351 L 412 353 L 411 352 L 407 353 L 405 357 L 405 355 L 402 356 L 401 359 L 399 358 L 398 361 L 398 359 L 393 361 L 390 366 L 390 365 L 389 364 L 387 368 L 387 366 L 383 368 L 380 373 L 380 372 L 379 371 L 377 375 L 377 374 L 376 373 L 371 380 L 372 378 L 371 377 L 364 386 L 367 382 L 366 381 L 359 388 L 360 389 L 353 396 L 352 395 Q 349 396 351 398 L 345 404 L 344 403 L 336 413 L 338 413 Q 337 415 336 413 L 332 418 L 334 418 Q 332 421 330 420 L 331 422 Q 330 424 329 422 L 326 426 L 328 426 Q 327 428 326 426 L 324 429 L 326 429 Q 325 431 324 429 L 322 432 L 324 432 Q 323 434 322 432 L 320 435 L 322 435 L 319 436 L 320 438 L 319 437 L 317 440 L 319 440 L 316 441 L 317 443 L 316 442 L 312 449 L 314 449 L 311 450 L 312 452 L 310 452 L 311 454 L 309 454 L 310 456 L 309 455 L 305 462 L 306 465 L 306 466 L 305 464 L 301 472 L 302 475 L 302 476 L 301 475 L 300 475 L 301 478 L 301 479 L 300 477 L 295 489 L 295 493 L 291 506 L 289 523 L 288 524 L 288 532 L 287 533 L 287 570 L 288 571 L 288 579 L 289 580 L 291 599 L 293 602 L 293 601 L 294 601 L 293 603 Q 294 613 298 620 L 298 619 L 299 619 L 298 621 Q 300 633 306 642 L 306 641 L 307 641 L 306 645 Q 307 647 309 645 L 308 647 L 316 662 L 316 661 L 316 659 L 318 663 L 316 663 L 317 666 Q 318 668 320 666 L 322 670 L 321 669 L 320 671 L 324 673 L 322 673 L 330 684 L 330 683 L 330 681 L 334 687 L 332 685 L 331 687 Q 333 691 335 688 L 343 699 Q 356 715 374 727 L 377 731 L 376 732 L 379 733 L 379 731 L 385 735 L 388 739 L 387 740 L 390 741 L 390 739 L 402 746 Q 404 747 402 749 L 409 752 L 409 750 L 426 758 L 426 759 L 420 756 L 417 757 L 439 766 L 459 772 L 485 777 L 499 777 L 500 778 L 528 778 L 529 777 L 548 776 L 552 775 L 548 774 L 548 773 L 553 774 L 558 774 L 571 771 L 589 765 L 587 764 L 593 761 L 594 762 L 593 762 L 593 763 L 599 761 L 598 760 L 598 759 L 600 760 L 608 757 L 606 756 L 609 754 L 609 756 L 618 752 L 619 749 L 621 750 L 620 749 L 648 730 L 647 732 L 649 732 L 652 727 L 651 729 L 653 729 Q 657 727 654 726 L 660 720 L 655 726 L 657 726 L 662 721 L 661 720 L 681 700 L 682 701 L 686 696 L 681 699 L 686 694 L 687 695 L 690 691 L 686 693 L 690 689 L 691 690 L 695 684 L 693 684 Q 695 679 697 682 L 698 680 L 696 680 Q 697 677 699 679 L 700 677 L 698 677 Q 699 674 701 676 L 702 674 L 700 674 Q 701 671 703 673 L 704 671 L 702 671 L 703 669 Q 704 666 706 668 L 708 664 L 706 664 L 708 660 L 710 659 L 708 662 L 709 663 L 715 651 L 713 651 L 715 648 L 716 650 L 718 646 L 718 643 L 717 645 L 716 645 L 718 641 L 719 643 L 721 639 L 721 636 L 720 638 L 719 638 L 721 634 L 722 636 L 723 634 L 723 631 L 722 633 L 721 633 L 723 627 L 724 627 L 723 629 L 724 631 L 726 626 L 725 622 L 726 619 L 727 622 L 729 616 L 728 612 L 729 609 L 730 612 L 732 602 L 732 600 L 734 594 L 735 583 L 736 582 L 736 573 L 737 572 L 737 536 L 736 535 L 736 524 L 733 507 L 730 495 L 729 498 L 728 498 L 729 495 L 729 491 L 722 471 L 721 471 L 724 480 L 724 481 L 718 468 L 719 466 L 719 468 L 720 468 L 719 463 L 711 447 L 708 446 L 709 444 L 708 444 L 705 441 L 707 441 L 707 440 L 704 439 L 705 437 L 702 436 L 704 436 L 704 435 L 700 433 L 702 433 L 702 432 L 698 430 L 700 430 L 700 429 L 697 428 L 698 426 L 694 424 L 696 424 L 696 423 Q 695 420 694 422 L 687 415 L 691 417 L 691 416 L 682 409 L 686 411 L 686 410 L 683 406 L 682 407 L 674 400 L 681 405 L 681 404 L 671 393 L 670 394 L 670 393 L 663 386 L 663 388 L 657 383 L 658 382 L 655 379 L 655 381 L 651 378 L 652 377 L 650 375 Q 648 371 647 374 L 646 371 L 644 372 L 643 369 L 641 370 L 640 367 L 638 368 L 637 365 L 635 366 L 634 363 L 632 364 L 632 363 L 630 361 L 630 363 Q 627 362 629 361 L 627 359 L 627 361 L 626 358 L 624 359 L 624 357 L 622 358 L 622 357 L 616 352 L 613 353 L 613 351 L 611 352 L 611 350 L 609 351 L 609 349 L 607 350 L 607 348 L 605 349 L 603 349 L 605 348 L 573 335 L 551 330 Q 544 328 543 331 L 540 331 L 543 330 L 536 328 L 527 328 L 526 327 L 498 327 Z M 693 330 L 696 334 L 697 334 L 693 330 Z M 329 331 L 327 334 L 330 332 L 329 331 Z M 699 335 L 704 341 L 705 341 L 699 335 Z M 316 343 L 314 345 L 316 345 L 316 343 Z M 306 353 L 304 355 L 306 355 L 306 353 Z M 304 355 L 302 357 L 304 357 L 304 355 Z M 294 366 L 291 370 L 294 368 L 294 366 Z M 738 375 L 737 377 L 740 379 L 738 375 Z M 284 379 L 281 383 L 284 381 L 284 379 Z M 741 379 L 740 381 L 743 383 L 741 379 Z M 280 384 L 278 387 L 280 386 L 280 384 Z M 278 387 L 276 390 L 278 389 L 278 387 Z M 747 387 L 746 389 L 748 390 L 747 387 Z M 356 390 L 354 393 L 357 391 L 356 390 Z M 749 390 L 748 392 L 750 393 L 749 390 Z M 751 393 L 750 395 L 752 396 L 751 393 Z M 753 396 L 752 398 L 755 403 L 757 404 L 753 396 Z M 346 399 L 346 401 L 348 400 L 346 399 Z M 758 404 L 758 408 L 760 409 L 758 404 Z M 762 411 L 762 415 L 764 416 L 762 411 Z M 692 417 L 691 419 L 694 421 L 692 417 Z M 250 437 L 248 440 L 249 442 L 250 440 L 250 437 Z M 248 442 L 243 453 L 244 455 L 248 445 L 248 442 Z M 256 679 L 256 683 L 257 683 L 256 679 Z M 258 683 L 260 691 L 262 692 L 258 683 Z M 335 689 L 334 691 L 338 694 L 335 689 Z M 339 694 L 338 696 L 342 699 L 339 694 Z M 759 698 L 756 702 L 757 703 L 759 700 L 759 698 Z M 345 701 L 344 703 L 352 710 L 345 701 Z M 680 702 L 666 717 L 680 704 L 680 702 Z M 756 703 L 754 706 L 756 705 L 756 703 Z M 272 707 L 271 709 L 273 710 L 272 707 Z M 753 708 L 750 712 L 753 710 L 753 708 Z M 274 710 L 273 712 L 275 713 L 274 710 Z M 353 710 L 355 713 L 355 712 L 353 710 Z M 750 712 L 748 715 L 750 714 L 750 712 Z M 276 713 L 275 715 L 277 716 L 276 713 Z M 356 713 L 364 722 L 365 722 L 356 713 Z M 748 715 L 746 718 L 748 717 L 748 715 Z M 278 716 L 277 718 L 280 720 L 278 716 Z M 664 718 L 662 720 L 664 720 L 664 718 Z M 281 720 L 280 722 L 282 723 L 281 720 Z M 367 723 L 369 726 L 370 726 L 367 723 Z M 284 724 L 283 726 L 286 728 L 284 724 Z M 373 728 L 375 731 L 376 731 L 373 728 Z M 382 735 L 383 737 L 384 737 L 382 735 Z M 385 737 L 386 739 L 387 739 L 385 737 Z M 638 738 L 637 740 L 639 739 L 638 738 Z M 296 739 L 295 741 L 301 746 L 296 739 Z M 635 740 L 634 742 L 636 741 L 635 740 Z M 391 741 L 392 743 L 393 743 L 391 741 Z M 632 742 L 630 743 L 629 745 L 633 743 L 632 742 Z M 394 743 L 397 746 L 398 746 L 394 743 Z M 625 746 L 624 748 L 626 747 L 625 746 Z M 719 748 L 719 750 L 721 749 L 719 748 Z M 412 753 L 413 755 L 415 755 L 412 753 Z M 590 763 L 590 764 L 592 764 L 590 763 Z M 320 764 L 326 771 L 327 771 L 320 764 Z M 328 771 L 330 774 L 331 774 L 328 771 Z M 333 775 L 336 779 L 337 779 L 333 775 Z M 342 782 L 343 784 L 344 784 L 342 782 Z M 346 785 L 347 787 L 348 787 L 346 785 Z M 349 787 L 350 789 L 351 789 L 349 787 Z M 675 787 L 674 789 L 676 788 L 675 787 Z M 352 789 L 356 793 L 357 793 L 352 789 Z M 666 793 L 665 795 L 667 794 L 666 793 Z M 663 795 L 662 797 L 664 796 L 663 795 Z M 364 797 L 367 800 L 368 800 L 364 797 Z M 655 800 L 653 801 L 652 803 L 656 801 L 655 800 Z M 371 801 L 374 804 L 375 804 L 371 801 Z M 650 803 L 646 805 L 645 807 L 651 804 L 650 803 Z M 632 812 L 626 815 L 626 816 L 634 813 L 632 812 Z M 408 819 L 408 820 L 416 823 L 418 823 L 408 819 Z M 428 826 L 428 827 L 430 827 L 428 826 Z M 431 827 L 431 828 L 433 828 L 431 827 Z " /><path fill="rgb(20,21,24)" stroke="rgb(20,21,24)" stroke-width="1" opacity="0.9882352941176471" d="M 456.5 168 L 462 168.5 L 456.5 169 L 456.5 168 Z " /><path fill="rgb(20,21,24)" stroke="rgb(20,21,24)" stroke-width="1" opacity="0.9882352941176471" d="M 513.5 168 L 516 168.5 L 513.5 169 L 513.5 168 Z " /><path fill="rgb(20,21,24)" stroke="rgb(20,21,24)" stroke-width="1" opacity="0.9882352941176471" d="M 520.5 168 L 524 168.5 L 520.5 169 L 520.5 168 Z " /><path fill="rgb(20,21,24)" stroke="rgb(20,21,24)" stroke-width="1" opacity="0.9882352941176471" d="M 535.5 168 L 544 168.5 L 535.5 169 L 535.5 168 Z " /><path fill="rgb(20,21,24)" stroke="rgb(20,21,24)" stroke-width="1" opacity="0.9882352941176471" d="M 591.5 173 L 599 179.5 L 594.5 176 L 591.5 173 Z " /><path fill="rgb(20,21,24)" stroke="rgb(20,21,24)" stroke-width="1" opacity="0.9882352941176471" d="M 417.5 199 L 419 213.5 L 418 213.5 L 417.5 199 Z " /><path fill="rgb(20,21,24)" stroke="rgb(20,21,24)" stroke-width="1" opacity="0.9882352941176471" d="M 419.5 215 L 423 222.5 L 421 221.5 Q 418 219 419.5 215 Z " /><path fill="rgb(20,21,24)" stroke="rgb(20,21,24)" stroke-width="1" opacity="0.9882352941176471" d="M 438.5 237 L 442 238.5 L 440.5 239 L 438.5 237 Z " /><path fill="rgb(20,21,24)" stroke="rgb(20,21,24)" stroke-width="1" opacity="0.9882352941176471" d="M 582.5 238 L 584 238.5 L 578.5 240 L 578.5 239 L 582.5 238 Z " /><path fill="rgb(20,21,24)" stroke="rgb(20,21,24)" stroke-width="1" opacity="0.9882352941176471" d="M 452.5 240 L 471 240.5 L 452.5 241 L 452.5 240 Z " /><path fill="rgb(20,21,24)" stroke="rgb(20,21,24)" stroke-width="1" opacity="0.9882352941176471" d="M 551.5 240 L 574 240.5 L 551.5 241 L 551.5 240 Z " /><path fill="rgb(20,21,24)" stroke="rgb(20,21,24)" stroke-width="1" opacity="0.9882352941176471" d="M 463.5 269 L 467 269.5 L 463.5 270 L 463.5 269 Z " /><path fill="rgb(20,21,24)" stroke="rgb(20,21,24)" stroke-width="1" opacity="0.9882352941176471" d="M 458.5 270 L 461 270.5 L 458.5 271 L 458.5 270 Z " /><path fill="rgb(20,21,24)" stroke="rgb(20,21,24)" stroke-width="1" opacity="0.9882352941176471" d="M 451.5 271 L 455 271.5 L 451.5 272 L 451.5 271 Z " /><path fill="rgb(20,21,24)" stroke="rgb(20,21,24)" stroke-width="1" opacity="0.9882352941176471" d="M 568.5 271 L 571 271.5 L 568.5 272 L 568.5 271 Z " /><path fill="rgb(20,21,24)" stroke="rgb(20,21,24)" stroke-width="1" opacity="0.9882352941176471" d="M 447.5 272 L 450 272.5 L 447.5 273 L 447.5 272 Z " /><path fill="rgb(20,21,24)" stroke="rgb(20,21,24)" stroke-width="1" opacity="0.9882352941176471" d="M 442.5 273 L 445 273.5 L 442.5 274 L 442.5 273 Z " /><path fill="rgb(20,21,24)" stroke="rgb(20,21,24)" stroke-width="1" opacity="0.9882352941176471" d="M 579.5 273 L 582 273.5 L 579.5 274 L 579.5 273 Z " /><path fill="rgb(20,21,24)" stroke="rgb(20,21,24)" stroke-width="1" opacity="0.9882352941176471" d="M 438.5 274 L 441 274.5 L 438.5 275 L 438.5 274 Z " /><path fill="rgb(20,21,24)" stroke="rgb(20,21,24)" stroke-width="1" opacity="0.9882352941176471" d="M 583.5 274 L 586 274.5 L 583.5 275 L 583.5 274 Z " /><path fill="rgb(20,21,24)" stroke="rgb(20,21,24)" stroke-width="1" opacity="0.9882352941176471" d="M 587.5 275 L 590 275.5 L 587.5 276 L 587.5 275 Z " /><path fill="rgb(20,21,24)" stroke="rgb(20,21,24)" stroke-width="1" opacity="0.9882352941176471" d="M 420.5 279 L 423 279.5 L 415.5 282 L 415.5 281 L 420.5 279 Z " /><path fill="rgb(20,21,24)" stroke="rgb(20,21,24)" stroke-width="1" opacity="0.9882352941176471" d="M 406.5 284 L 408 284.5 L 404.5 286 L 404.5 285 L 406.5 284 Z " /><path fill="rgb(20,21,24)" stroke="rgb(20,21,24)" stroke-width="1" opacity="0.9882352941176471" d="M 531.5 329 L 535 329.5 L 531.5 330 L 531.5 329 Z " /><path fill="rgb(20,21,24)" stroke="rgb(20,21,24)" stroke-width="1" opacity="0.9882352941176471" d="M 481.5 330 L 484 330.5 L 481.5 331 L 481.5 330 Z " /><path fill="rgb(20,21,24)" stroke="rgb(20,21,24)" stroke-width="1" opacity="0.9882352941176471" d="M 557.5 333 L 560 333.5 L 557.5 334 L 557.5 333 Z " /><path fill="rgb(20,21,24)" stroke="rgb(20,21,24)" stroke-width="1" opacity="0.9882352941176471" d="M 614.5 353 L 615.5 355 L 614.5 353 Z " /><path fill="rgb(20,21,24)" stroke="rgb(20,21,24)" stroke-width="1" opacity="0.9882352941176471" d="M 395.5 361 L 394.5 363 L 392.5 364 L 393.5 362 L 395.5 361 Z " /><path fill="rgb(20,21,24)" stroke="rgb(20,21,24)" stroke-width="1" opacity="0.9882352941176471" d="M 606.5 426 L 614.5 426 L 621.5 428 Q 630.5 432 636 439.5 L 629.5 434 L 628 434.5 L 636.5 444 L 637 442.5 L 636.5 441 Q 640.4 444.6 641 451.5 L 640 451.5 L 639.5 449 L 639 452.5 L 640 453.5 L 640 465.5 L 639 470.5 L 640 472.5 L 639 472.5 L 638.5 471 L 634 479.5 L 636 479.5 Q 634.7 482.3 633.5 480 L 626 487.5 L 626.5 489 L 625.5 488 L 618 495.5 L 619.5 496 L 624 492.5 L 597 518.5 L 604 510.5 L 594 519.5 L 594.5 521 L 593.5 520 L 587 526.5 L 588.5 527 L 591 525.5 L 584.5 531 L 583.5 530 L 580 533.5 L 580.5 535 Q 579.3 532.8 578 535.5 L 578.5 537 L 577.5 536 L 574 539.5 L 574.5 541 L 573.5 540 L 569 544.5 L 571 545.5 L 567 548 L 567 560.5 L 563 574.5 L 563.5 576 L 562 575.5 L 563 578.5 L 561 579.5 L 562 577.5 L 560 578.5 L 561 581.5 L 558 582.5 L 558.5 584 L 560 583.5 L 554 587.5 L 554.5 589 L 556 588.5 L 546 597.5 L 547.5 595 L 541 599.5 Q 543.3 600.8 540.5 602 L 540.5 600 L 532.5 604 L 521.5 607 L 503.5 607 L 492.5 604 L 491 604.5 L 491.5 603 L 488.5 604 L 488.5 603 L 490 602.5 L 484.5 600 L 484.5 602 L 481 599.5 Q 483.8 597.8 479.5 596 L 478 596.5 L 479.5 599 L 474 593.5 Q 476.3 592.3 473.5 591 L 472.5 592 L 468 587.5 L 466 584.5 L 468 584.5 L 466.5 582 L 465 582.5 L 466 580.5 L 462.5 574 L 461.5 576 L 461 574.5 L 462 571.5 L 459 562.5 L 459 543.5 L 466 525.5 L 464 525.5 L 467.5 521 Q 469.3 523.8 471 519.5 L 470.5 518 L 468 519.5 Q 469.8 515.3 471.5 518 L 476 513.5 L 475 512.5 L 479.5 508 L 484.5 505 L 484.5 507 L 499.5 501 L 518.5 500 L 523.5 501 L 524.5 499 L 505 498.5 L 523.5 498 L 527 496 Q 525.9 493.3 528.5 494 L 588.5 433 L 591.5 431 L 590.5 434 L 595 431.5 L 593 430.5 L 596.5 429 L 600.5 430 L 606.5 428 L 608.5 428 L 617.5 429 L 626.5 433 L 625.5 431 L 614.5 427 L 606.5 427 L 606.5 426 Z M 589 434 L 578 446 L 590 435 L 589 434 Z M 638 444 L 638 449 L 639 449 L 638 444 Z M 577 446 L 571 453 L 578 447 L 577 446 Z M 569 453 L 569 455 L 571 454 L 569 453 Z M 568 455 L 562 462 L 569 456 L 568 455 Z M 561 462 L 556 468 L 562 463 L 561 462 Z M 551 471 L 551 473 L 553 472 L 551 471 Z M 528 496 L 526 499 L 528 498 L 528 496 Z M 617 497 L 607 508 L 617 499 L 617 497 Z M 483 507 L 482 509 L 484 508 L 483 507 Z M 480 509 L 478 512 L 481 510 L 480 509 Z M 468 522 L 466 525 L 468 524 L 468 522 Z M 586 528 L 584 530 L 586 530 L 586 528 Z M 470 586 L 469 588 L 471 589 L 470 586 Z " /><path fill="rgb(20,21,24)" stroke="rgb(20,21,24)" stroke-width="1" opacity="0.9882352941176471" d="M 601.5 427 L 604 427.5 L 601.5 428 L 601.5 427 Z " /><path fill="rgb(20,21,24)" stroke="rgb(20,21,24)" stroke-width="1" opacity="0.9882352941176471" d="M 771.5 428 L 775 435.5 L 774 435.5 L 771.5 428 Z " /><path fill="rgb(20,21,24)" stroke="rgb(20,21,24)" stroke-width="1" opacity="0.9882352941176471" d="M 776.5 439 L 778 442.5 L 777 442.5 L 776.5 439 Z " /><path fill="rgb(20,21,24)" stroke="rgb(20,21,24)" stroke-width="1" opacity="0.9882352941176471" d="M 778.5 444 L 783 455.5 L 782 455.5 L 778.5 444 Z " /><path fill="rgb(20,21,24)" stroke="rgb(20,21,24)" stroke-width="1" opacity="0.9882352941176471" d="M 709.5 447 L 712 451.5 L 710 450.5 L 709.5 447 Z " /><path fill="rgb(20,21,24)" stroke="rgb(20,21,24)" stroke-width="1" opacity="0.9882352941176471" d="M 641.5 453 L 642 459.5 L 641 459.5 L 641.5 453 Z " /><path fill="rgb(20,21,24)" stroke="rgb(20,21,24)" stroke-width="1" opacity="0.9882352941176471" d="M 713.5 455 L 718 464.5 L 717 464.5 L 713 456.5 L 713.5 455 Z " /><path fill="rgb(20,21,24)" stroke="rgb(20,21,24)" stroke-width="1" opacity="0.9882352941176471" d="M 783.5 457 L 785 461.5 L 784 461.5 L 783.5 457 Z " /><path fill="rgb(20,21,24)" stroke="rgb(20,21,24)" stroke-width="1" opacity="0.9882352941176471" d="M 240.5 458 L 241 460.5 L 237.5 470 L 237 467.5 L 240.5 458 Z " /><path fill="rgb(20,21,24)" stroke="rgb(20,21,24)" stroke-width="1" opacity="0.9882352941176471" d="M 641.5 461 L 642 463.5 L 641 463.5 L 641.5 461 Z " /><path fill="rgb(20,21,24)" stroke="rgb(20,21,24)" stroke-width="1" opacity="0.9882352941176471" d="M 785.5 463 L 789 474.5 L 788 474.5 L 785.5 463 Z " /><path fill="rgb(20,21,24)" stroke="rgb(20,21,24)" stroke-width="1" opacity="0.9882352941176471" d="M 640.5 467 L 641 469.5 L 640 469.5 L 640.5 467 Z " /><path fill="rgb(20,21,24)" stroke="rgb(20,21,24)" stroke-width="1" opacity="0.9882352941176471" d="M 236.5 471 L 237 473.5 L 235.5 477 L 235 474.5 L 236.5 471 Z " /><path fill="rgb(20,21,24)" stroke="rgb(20,21,24)" stroke-width="1" opacity="0.9882352941176471" d="M 789.5 476 L 790 478.5 L 789 478.5 L 789.5 476 Z " /><path fill="rgb(20,21,24)" stroke="rgb(20,21,24)" stroke-width="1" opacity="0.9882352941176471" d="M 234.5 478 L 235 480.5 L 234 480.5 L 234.5 478 Z " /><path fill="rgb(20,21,24)" stroke="rgb(20,21,24)" stroke-width="1" opacity="0.9882352941176471" d="M 790.5 480 L 792 486.5 L 791 486.5 L 790.5 480 Z " /><path fill="rgb(20,21,24)" stroke="rgb(20,21,24)" stroke-width="1" opacity="0.9882352941176471" d="M 233.5 482 L 234 484.5 L 231 494.5 L 228.5 511 L 228 505.5 L 233.5 482 Z " /><path fill="rgb(20,21,24)" stroke="rgb(20,21,24)" stroke-width="1" opacity="0.9882352941176471" d="M 726.5 488 L 728 493.5 L 727 493.5 L 726.5 488 Z " /><path fill="rgb(20,21,24)" stroke="rgb(20,21,24)" stroke-width="1" opacity="0.9882352941176471" d="M 792.5 488 L 795 501.5 L 794 501.5 L 792.5 488 Z " /><path fill="rgb(20,21,24)" stroke="rgb(20,21,24)" stroke-width="1" opacity="0.9882352941176471" d="M 500.5 499 L 503 499.5 L 500.5 500 L 500.5 499 Z " /><path fill="rgb(20,21,24)" stroke="rgb(20,21,24)" stroke-width="1" opacity="0.9882352941176471" d="M 729.5 499 L 730 501.5 L 729 501.5 L 729.5 499 Z " /><path fill="rgb(20,21,24)" stroke="rgb(20,21,24)" stroke-width="1" opacity="0.9882352941176471" d="M 492.5 501 L 495 501.5 L 490.5 503 L 490.5 502 L 492.5 501 Z " /><path fill="rgb(20,21,24)" stroke="rgb(20,21,24)" stroke-width="1" opacity="0.9882352941176471" d="M 730.5 503 L 731 506.5 L 730 506.5 L 730.5 503 Z " /><path fill="rgb(20,21,24)" stroke="rgb(20,21,24)" stroke-width="1" opacity="0.9882352941176471" d="M 795.5 503 L 797 513.5 L 796 513.5 L 795.5 503 Z " /><path fill="rgb(20,21,24)" stroke="rgb(20,21,24)" stroke-width="1" opacity="0.9882352941176471" d="M 731.5 508 L 732 510.5 L 731 510.5 L 731.5 508 Z " /><path fill="rgb(20,21,24)" stroke="rgb(20,21,24)" stroke-width="1" opacity="0.9882352941176471" d="M 227.5 513 L 228 517.5 L 227 517.5 L 227.5 513 Z " /><path fill="rgb(20,21,24)" stroke="rgb(20,21,24)" stroke-width="1" opacity="0.9882352941176471" d="M 473.5 513 L 471.5 516 L 473.5 513 Z " /><path fill="rgb(20,21,24)" stroke="rgb(20,21,24)" stroke-width="1" opacity="0.9882352941176471" d="M 732.5 513 L 733 516.5 L 732 516.5 L 732.5 513 Z " /><path fill="rgb(20,21,24)" stroke="rgb(20,21,24)" stroke-width="1" opacity="0.9882352941176471" d="M 797.5 515 L 799 522.5 L 799 532.5 L 798 532.5 L 797.5 515 Z " /><path fill="rgb(20,21,24)" stroke="rgb(20,21,24)" stroke-width="1" opacity="0.9882352941176471" d="M 226.5 520 L 227 527.5 L 226 527.5 L 226.5 520 Z " /><path fill="rgb(20,21,24)" stroke="rgb(20,21,24)" stroke-width="1" opacity="0.9882352941176471" d="M 733.5 520 L 734 524.5 L 733 524.5 L 733.5 520 Z " /><path fill="rgb(20,21,24)" stroke="rgb(20,21,24)" stroke-width="1" opacity="0.9882352941176471" d="M 289.5 524 L 290 528.5 L 289 528.5 L 289.5 524 Z " /><path fill="rgb(20,21,24)" stroke="rgb(20,21,24)" stroke-width="1" opacity="0.9882352941176471" d="M 734.5 526 L 735 535.5 L 734 535.5 L 734.5 526 Z " /><path fill="rgb(20,21,24)" stroke="rgb(20,21,24)" stroke-width="1" opacity="0.9882352941176471" d="M 225.5 529 L 226 545.5 L 225 545.5 L 225.5 529 Z " /><path fill="rgb(20,21,24)" stroke="rgb(20,21,24)" stroke-width="1" opacity="0.9882352941176471" d="M 799.5 535 L 800 569.5 L 799 570.5 L 798.5 582 L 798 570.5 L 799 569.5 L 799.5 535 Z " /><path fill="rgb(20,21,24)" stroke="rgb(20,21,24)" stroke-width="1" opacity="0.9882352941176471" d="M 735.5 541 L 736 567.5 L 735 567.5 L 735.5 541 Z " /><path fill="rgb(20,21,24)" stroke="rgb(20,21,24)" stroke-width="1" opacity="0.9882352941176471" d="M 288.5 544 L 289 550.5 L 288 550.5 L 288.5 544 Z " /><path fill="rgb(20,21,24)" stroke="rgb(20,21,24)" stroke-width="1" opacity="0.9882352941176471" d="M 457.5 544 L 458 561.5 L 457 561.5 L 457.5 544 Z " /><path fill="rgb(20,21,24)" stroke="rgb(20,21,24)" stroke-width="1" opacity="0.9882352941176471" d="M 225.5 552 L 226 557.5 L 225 557.5 L 225.5 552 Z " /><path fill="rgb(20,21,24)" stroke="rgb(20,21,24)" stroke-width="1" opacity="0.9882352941176471" d="M 568.5 554 L 569 560.5 L 568 560.5 L 568.5 554 Z " /><path fill="rgb(20,21,24)" stroke="rgb(20,21,24)" stroke-width="1" opacity="0.9882352941176471" d="M 288.5 559 L 289 562.5 L 288 562.5 L 288.5 559 Z " /><path fill="rgb(20,21,24)" stroke="rgb(20,21,24)" stroke-width="1" opacity="0.9882352941176471" d="M 225.5 560 L 226 576.5 L 225 576.5 L 225.5 560 Z " /><path fill="rgb(20,21,24)" stroke="rgb(20,21,24)" stroke-width="1" opacity="0.9882352941176471" d="M 567.5 563 L 568 565.5 L 567 565.5 L 567.5 563 Z " /><path fill="rgb(20,21,24)" stroke="rgb(20,21,24)" stroke-width="1" opacity="0.9882352941176471" d="M 734.5 570 L 735 578.5 L 734 578.5 L 734.5 570 Z " /><path fill="rgb(20,21,24)" stroke="rgb(20,21,24)" stroke-width="1" opacity="0.9882352941176471" d="M 289.5 574 L 290 577.5 L 289 577.5 L 289.5 574 Z " /><path fill="rgb(20,21,24)" stroke="rgb(20,21,24)" stroke-width="1" opacity="0.9882352941176471" d="M 226.5 579 L 227 586.5 L 226 586.5 L 226.5 579 Z " /><path fill="rgb(20,21,24)" stroke="rgb(20,21,24)" stroke-width="1" opacity="0.9882352941176471" d="M 290.5 582 L 291 584.5 L 290 584.5 L 290.5 582 Z " /><path fill="rgb(20,21,24)" stroke="rgb(20,21,24)" stroke-width="1" opacity="0.9882352941176471" d="M 733.5 582 L 734 586.5 L 733 586.5 L 733.5 582 Z " /><path fill="rgb(20,21,24)" stroke="rgb(20,21,24)" stroke-width="1" opacity="0.9882352941176471" d="M 797.5 583 L 798 589.5 L 797 589.5 L 797.5 583 Z " /><path fill="rgb(20,21,24)" stroke="rgb(20,21,24)" stroke-width="1" opacity="0.9882352941176471" d="M 227.5 589 L 228 593.5 L 227 593.5 L 227.5 589 Z " /><path fill="rgb(20,21,24)" stroke="rgb(20,21,24)" stroke-width="1" opacity="0.9882352941176471" d="M 291.5 589 L 292 591.5 L 291 591.5 L 291.5 589 Z " /><path fill="rgb(20,21,24)" stroke="rgb(20,21,24)" stroke-width="1" opacity="0.9882352941176471" d="M 732.5 590 L 733 592.5 L 732 592.5 L 732.5 590 Z " /><path fill="rgb(20,21,24)" stroke="rgb(20,21,24)" stroke-width="1" opacity="0.9882352941176471" d="M 796.5 592 L 797 595.5 L 796 595.5 L 796.5 592 Z " /><path fill="rgb(20,21,24)" stroke="rgb(20,21,24)" stroke-width="1" opacity="0.9882352941176471" d="M 228.5 596 L 229 600.5 L 228 600.5 L 228.5 596 Z " /><path fill="rgb(20,21,24)" stroke="rgb(20,21,24)" stroke-width="1" opacity="0.9882352941176471" d="M 544.5 598 L 543.5 600 L 544.5 598 Z " /><path fill="rgb(20,21,24)" stroke="rgb(20,21,24)" stroke-width="1" opacity="0.9882352941176471" d="M 795.5 598 L 796 602.5 L 795 602.5 L 795.5 598 Z " /><path fill="rgb(20,21,24)" stroke="rgb(20,21,24)" stroke-width="1" opacity="0.9882352941176471" d="M 730.5 600 L 731 602.5 L 730 602.5 L 730.5 600 Z " /><path fill="rgb(20,21,24)" stroke="rgb(20,21,24)" stroke-width="1" opacity="0.9882352941176471" d="M 229.5 602 L 230 606.5 L 229 606.5 L 229.5 602 Z " /><path fill="rgb(20,21,24)" stroke="rgb(20,21,24)" stroke-width="1" opacity="0.9882352941176471" d="M 794.5 605 L 795 608.5 L 794 608.5 L 794.5 605 Z " /><path fill="rgb(20,21,24)" stroke="rgb(20,21,24)" stroke-width="1" opacity="0.9882352941176471" d="M 230.5 608 L 231 611.5 L 230 611.5 L 230.5 608 Z " /><path fill="rgb(20,21,24)" stroke="rgb(20,21,24)" stroke-width="1" opacity="0.9882352941176471" d="M 793.5 610 L 794 613.5 L 792.5 618 L 792 614.5 L 793.5 610 Z " /><path fill="rgb(20,21,24)" stroke="rgb(20,21,24)" stroke-width="1" opacity="0.9882352941176471" d="M 231.5 613 L 233 620.5 L 232 620.5 L 231.5 613 Z " /><path fill="rgb(20,21,24)" stroke="rgb(20,21,24)" stroke-width="1" opacity="0.9882352941176471" d="M 791.5 619 L 792 622.5 L 790.5 626 L 790 623.5 L 791.5 619 Z " /><path fill="rgb(20,21,24)" stroke="rgb(20,21,24)" stroke-width="1" opacity="0.9882352941176471" d="M 233.5 622 L 235 628.5 L 234 628.5 L 233.5 622 Z " /><path fill="rgb(20,21,24)" stroke="rgb(20,21,24)" stroke-width="1" opacity="0.9882352941176471" d="M 789.5 627 L 790 629.5 L 789 629.5 L 789.5 627 Z " /><path fill="rgb(20,21,24)" stroke="rgb(20,21,24)" stroke-width="1" opacity="0.9882352941176471" d="M 236.5 633 L 237 635.5 L 236 635.5 L 236.5 633 Z " /><path fill="rgb(20,21,24)" stroke="rgb(20,21,24)" stroke-width="1" opacity="0.9882352941176471" d="M 786.5 637 L 787 639.5 L 785.5 643 L 785 640.5 L 786.5 637 Z " /><path fill="rgb(20,21,24)" stroke="rgb(20,21,24)" stroke-width="1" opacity="0.9882352941176471" d="M 238.5 640 L 244 655.5 L 243 655.5 L 238 642.5 L 238.5 640 Z " /><path fill="rgb(20,21,24)" stroke="rgb(20,21,24)" stroke-width="1" opacity="0.9882352941176471" d="M 782.5 650 L 783 651.5 L 781.5 654 L 781 652.5 L 782.5 650 Z " /><path fill="rgb(20,21,24)" stroke="rgb(20,21,24)" stroke-width="1" opacity="0.9882352941176471" d="M 244.5 657 L 249 667.5 L 248 667.5 L 244.5 657 Z " /><path fill="rgb(20,21,24)" stroke="rgb(20,21,24)" stroke-width="1" opacity="0.9882352941176471" d="M 775.5 667 L 776 668.5 L 774.5 671 L 774 669.5 L 775.5 667 Z " /><path fill="rgb(20,21,24)" stroke="rgb(20,21,24)" stroke-width="1" opacity="0.9882352941176471" d="M 324.5 674 L 329 679.5 L 326 677.5 L 324.5 674 Z " /><path fill="rgb(20,21,24)" stroke="rgb(20,21,24)" stroke-width="1" opacity="0.9882352941176471" d="M 692.5 685 L 691.5 687 L 692.5 685 Z " /><path fill="rgb(20,21,24)" stroke="rgb(20,21,24)" stroke-width="1" opacity="0.9882352941176471" d="M 762.5 694 L 761.5 696 L 762.5 694 Z " /><path fill="rgb(20,21,24)" stroke="rgb(20,21,24)" stroke-width="1" opacity="0.9882352941176471" d="M 427.5 759 L 431 760.5 L 429.5 761 L 427.5 759 Z " /><path fill="rgb(20,21,24)" stroke="rgb(20,21,24)" stroke-width="1" opacity="0.9882352941176471" d="M 432.5 761 L 436 762.5 L 434.5 763 L 432.5 761 Z " /><path fill="rgb(20,21,24)" stroke="rgb(20,21,24)" stroke-width="1" opacity="0.9882352941176471" d="M 440.5 764 L 448 766.5 L 445.5 767 L 440.5 765 L 440.5 764 Z " /><path fill="rgb(20,21,24)" stroke="rgb(20,21,24)" stroke-width="1" opacity="0.9882352941176471" d="M 580.5 765 L 583 765.5 L 578.5 767 L 578.5 766 L 580.5 765 Z " /><path fill="rgb(20,21,24)" stroke="rgb(20,21,24)" stroke-width="1" opacity="0.9882352941176471" d="M 449.5 767 L 459 769.5 L 456.5 770 L 449.5 768 L 449.5 767 Z " /><path fill="rgb(20,21,24)" stroke="rgb(20,21,24)" stroke-width="1" opacity="0.9882352941176471" d="M 460.5 770 L 463 770.5 L 460.5 771 L 460.5 770 Z " /><path fill="rgb(20,21,24)" stroke="rgb(20,21,24)" stroke-width="1" opacity="0.9882352941176471" d="M 464.5 771 L 468 771.5 L 464.5 772 L 464.5 771 Z " /><path fill="rgb(20,21,24)" stroke="rgb(20,21,24)" stroke-width="1" opacity="0.9882352941176471" d="M 469.5 772 L 473 772.5 L 469.5 773 L 469.5 772 Z " /><path fill="rgb(20,21,24)" stroke="rgb(20,21,24)" stroke-width="1" opacity="0.9882352941176471" d="M 554.5 772 L 557 772.5 L 554.5 773 L 554.5 772 Z " /><path fill="rgb(20,21,24)" stroke="rgb(20,21,24)" stroke-width="1" opacity="0.9882352941176471" d="M 474.5 773 L 479 773.5 L 474.5 774 L 474.5 773 Z " /><path fill="rgb(20,21,24)" stroke="rgb(20,21,24)" stroke-width="1" opacity="0.9882352941176471" d="M 480.5 774 L 484 774.5 L 480.5 775 L 480.5 774 Z " /><path fill="rgb(20,21,24)" stroke="rgb(20,21,24)" stroke-width="1" opacity="0.9882352941176471" d="M 541.5 774 L 545 774.5 L 541.5 775 L 541.5 774 Z " /><path fill="rgb(20,21,24)" stroke="rgb(20,21,24)" stroke-width="1" opacity="0.9882352941176471" d="M 490.5 775 L 494 775.5 L 490.5 776 L 490.5 775 Z " /><path fill="rgb(20,21,24)" stroke="rgb(20,21,24)" stroke-width="1" opacity="0.9882352941176471" d="M 532.5 775 L 537 775.5 L 532.5 776 L 532.5 775 Z " /><path fill="rgb(20,21,24)" stroke="rgb(20,21,24)" stroke-width="1" opacity="0.9882352941176471" d="M 502.5 776 L 526 776.5 L 502.5 777 L 502.5 776 Z " /><path fill="rgb(20,21,24)" stroke="rgb(20,21,24)" stroke-width="1" opacity="0.9882352941176471" d="M 381.5 808 L 386 810.5 L 384.5 811 L 381.5 808 Z " /><path fill="rgb(20,21,24)" stroke="rgb(20,21,24)" stroke-width="1" opacity="0.9882352941176471" d="M 608.5 823 L 610 823.5 L 596.5 828 L 596.5 827 L 608.5 823 Z " /><path fill="rgb(20,21,24)" stroke="rgb(20,21,24)" stroke-width="1" opacity="0.9882352941176471" d="M 589.5 829 L 592 829.5 L 582.5 832 L 582.5 831 L 589.5 829 Z " /><path fill="rgb(20,21,24)" stroke="rgb(20,21,24)" stroke-width="1" opacity="0.9882352941176471" d="M 437.5 830 L 440 830.5 L 437.5 831 L 437.5 830 Z " /><path fill="rgb(20,21,24)" stroke="rgb(20,21,24)" stroke-width="1" opacity="0.9882352941176471" d="M 578.5 832 L 581 832.5 L 578.5 833 L 578.5 832 Z " /><path fill="rgb(20,21,24)" stroke="rgb(20,21,24)" stroke-width="1" opacity="0.9882352941176471" d="M 449.5 833 L 453 833.5 L 449.5 834 L 449.5 833 Z " /><path fill="rgb(20,21,24)" stroke="rgb(20,21,24)" stroke-width="1" opacity="0.9882352941176471" d="M 573.5 833 L 577 833.5 L 569.5 835 L 569.5 834 L 573.5 833 Z " /><path fill="rgb(20,21,24)" stroke="rgb(20,21,24)" stroke-width="1" opacity="0.9882352941176471" d="M 454.5 834 L 458 834.5 L 454.5 835 L 454.5 834 Z " /><path fill="rgb(20,21,24)" stroke="rgb(20,21,24)" stroke-width="1" opacity="0.9882352941176471" d="M 460.5 835 L 464 835.5 L 460.5 836 L 460.5 835 Z " /><path fill="rgb(20,21,24)" stroke="rgb(20,21,24)" stroke-width="1" opacity="0.9882352941176471" d="M 563.5 835 L 567 835.5 L 563.5 836 L 563.5 835 Z " /><path fill="rgb(20,21,24)" stroke="rgb(20,21,24)" stroke-width="1" opacity="0.9882352941176471" d="M 465.5 836 L 470 836.5 L 465.5 837 L 465.5 836 Z " /><path fill="rgb(20,21,24)" stroke="rgb(20,21,24)" stroke-width="1" opacity="0.9882352941176471" d="M 557.5 836 L 561 836.5 L 557.5 837 L 557.5 836 Z " /><path fill="rgb(20,21,24)" stroke="rgb(20,21,24)" stroke-width="1" opacity="0.9882352941176471" d="M 471.5 837 L 477 837.5 L 471.5 838 L 471.5 837 Z " /><path fill="rgb(20,21,24)" stroke="rgb(20,21,24)" stroke-width="1" opacity="0.9882352941176471" d="M 549.5 837 L 555 837.5 L 549.5 838 L 549.5 837 Z " /><path fill="rgb(20,21,24)" stroke="rgb(20,21,24)" stroke-width="1" opacity="0.9882352941176471" d="M 479.5 838 L 487 838.5 L 479.5 839 L 479.5 838 Z " /><path fill="rgb(20,21,24)" stroke="rgb(20,21,24)" stroke-width="1" opacity="0.9882352941176471" d="M 541.5 838 L 548 838.5 L 541.5 839 L 541.5 838 Z " /><path fill="rgb(20,21,24)" stroke="rgb(20,21,24)" stroke-width="1" opacity="0.9882352941176471" d="M 492.5 839 L 504 839.5 L 492.5 840 L 492.5 839 Z " /><path fill="rgb(20,21,24)" stroke="rgb(20,21,24)" stroke-width="1" opacity="0.9882352941176471" d="M 525.5 839 L 533 839.5 L 525.5 840 L 525.5 839 Z " /></svg>